### TheCloon ###

90210 S03E14 HDTV XviD-LOL

Feb 7, 2011  

Episode 14, Season 3 Plot:
Everything changes for Navid when he learns how Adrianna used the baby she gave up for adoption. Adrianna leans on Silver for support and makes a shocking discovery. Annie gets the opportunity to audition for a play and Emily comes up with a plan to sabotage her. Naomi returns from a spiritual retreat and decides to throw a party for Guru Sona but realizes the Guru may not be the person Naomi thinks she is. Ivy is nervous about getting back in the water after her accident. Teddy is being blackmailed and is surprised to find out who is behind it.

[Video Information]

Format                           : AVI
Format/Info                      : Audio Video Interleave
File size                        : 350 MiB
Duration                         : 41mn 32s
Overall bit rate                 : 1 177 Kbps
Writing application              : transcode-1.0.6

Video
ID                               : 0
Format                           : MPEG-4 Visual
Format profile                   : Advanced Simple@L5
Format settings, BVOP            : 2
Format settings, QPel            : No
Format settings, GMC             : No warppoints
Format settings, Matrix          : Default (H.263)
Codec ID                         : XVID
Codec ID/Hint                    : XviD
Duration                         : 41mn 32s
Bit rate                         : 1 001 Kbps
Width                            : 624 pixels
Height                           : 352 pixels
Display aspect ratio             : 16:9
Frame rate                       : 23.976 fps
Color space                      : YUV
Chroma subsampling               : 4:2:0
Bit depth                        : 8 bits
Scan type                        : Progressive
Compression mode                 : Lossy
Bits/(Pixel*Frame)               : 0.190
Stream size                      : 297 MiB (85%)
Writing library                  : XviD 1.2.1 (UTC 2008-12-04)

Audio
ID                               : 1
Format                           : MPEG Audio
Format version                   : Version 1
Format profile                   : Layer 3
Mode                             : Joint stereo
Codec ID                         : 55
Codec ID/Hint                    : MP3
Duration                         : 41mn 32s
Bit rate mode                    : Variable
Bit rate                         : 160 Kbps
Channel(s)                       : 2 channels
Sampling rate                    : 48.0 KHz
Compression mode                 : Lossy
Stream size                      : 48.6 MiB (14%)
Alignment                        : Aligned on interleaves
Interleave, duration             : 24 ms (0.58 video frame)
Writing library                  : LAME3.90.
Encoding settings                : -m j -V 4 -q 2 -lowpass 18 --abr 160

[Screenshots] 
http://bayimg.com/LadAaAAdM 
http://bayimg.com/LAdABAADM